<svg width="1000" height="76" viewBox="0 0 1000 76" fill="none" xmlns="http://www.w3.org/2000/svg">
<path d="M42.2145 36.4185C42.2145 36.5089 41.7303 32.8942 40.9003 25.5743C40.762 24.3995 40.1395 23.6766 39.102 23.6766H37.442C36.3354 23.6766 35.7821 24.3995 35.6437 25.5743C34.7446 32.8942 34.3296 36.5089 34.3296 36.4185C34.3296 37.4126 34.7446 38.0452 35.6437 38.0452H40.9003C41.7995 38.0452 42.2145 37.4126 42.2145 36.4185ZM67.6676 1.98811L76.5208 74.283C76.6591 75.4578 76.1058 76 75.2066 76H48.5778C47.4711 76 46.9178 75.3674 46.7794 74.0119L45.5344 63.7099C45.3961 62.3543 44.8428 61.7218 43.8053 61.7218H32.7387C31.7013 61.7218 31.1479 62.3543 31.0096 63.7099L29.7646 74.0119C29.6263 75.3674 29.0038 76 27.9663 76H1.3374C0.369079 76 -0.115083 75.4578 0.0232487 74.283L8.87649 1.98811C9.01482 0.722945 9.56815 0 10.6748 0H65.8692C66.9067 0 67.4601 0.722945 67.6676 1.98811Z"/>
<path d="M153.588 1.98811V21.6885C153.588 23.044 153.104 23.6766 152.066 23.6766H132.838C131.801 23.6766 131.316 24.3092 131.316 25.6647V74.0119C131.316 75.3674 130.832 76 129.795 76H103.166C102.198 76 101.644 75.3674 101.644 74.0119V25.6647C101.644 24.3092 101.16 23.6766 100.123 23.6766H78.7503C77.7128 23.6766 77.2287 23.044 77.2287 21.6885V1.98811C77.2287 0.632578 77.7128 0 78.7503 0H152.066C153.104 0 153.588 0.632578 153.588 1.98811Z"/>
<path d="M237.073 54.3115V74.0119C237.073 75.3674 236.589 76 235.552 76H162.305C161.267 76 160.714 75.3674 160.714 74.0119V1.98811C160.714 0.632578 161.198 0 162.236 0H235.483C236.52 0 237.073 0.632578 237.073 1.98811V21.6885C237.073 23.044 236.589 23.6766 235.552 23.6766H191.977C191.078 23.6766 190.317 24.6706 190.317 25.8454V26.1165C190.317 27.3817 191.078 28.3757 191.977 28.3757H233.961C234.998 28.3757 235.552 29.0083 235.552 30.3639V45.6361C235.552 46.9917 235.068 47.6243 234.03 47.6243H191.977C191.078 47.6243 190.317 48.6183 190.317 49.8835V50.1546C190.317 51.3294 191.078 52.3234 191.977 52.3234H235.483C236.52 52.3234 237.073 52.956 237.073 54.3115Z"/>
<path d="M318.968 54.3115V74.0119C318.968 75.3674 318.484 76 317.446 76H245.721C244.684 76 244.13 75.3674 244.13 74.0119V1.98811C244.13 0.722945 244.615 0 245.652 0H272.281C273.249 0 273.803 0.722945 273.803 1.98811V50.3353C273.803 51.6005 274.287 52.3234 275.324 52.3234H317.377C318.415 52.3234 318.968 52.956 318.968 54.3115Z"/>
<path d="M356.209 1.98811V74.0119C356.209 75.3674 355.725 76 354.687 76H328.058C327.021 76 326.468 75.3674 326.468 74.0119V1.98811C326.468 0.632578 326.952 0 327.989 0H354.618C355.656 0 356.209 0.632578 356.209 1.98811Z"/>
<path d="M440.181 54.3115V74.0119C440.181 75.3674 439.697 76 438.659 76H365.412C364.375 76 363.822 75.3674 363.822 74.0119V1.98811C363.822 0.632578 364.306 0 365.343 0H438.59C439.628 0 440.181 0.632578 440.181 1.98811V21.6885C440.181 23.044 439.697 23.6766 438.659 23.6766H395.085C394.185 23.6766 393.425 24.6706 393.425 25.8454V26.1165C393.425 27.3817 394.185 28.3757 395.085 28.3757H437.068C438.106 28.3757 438.659 29.0083 438.659 30.3639V45.6361C438.659 46.9917 438.175 47.6243 437.138 47.6243H395.085C394.185 47.6243 393.425 48.6183 393.425 49.8835V50.1546C393.425 51.3294 394.185 52.3234 395.085 52.3234H438.59C439.628 52.3234 440.181 52.956 440.181 54.3115Z"/>
<path d="M493.925 35.9667L493.994 25.6647C493.994 24.3092 493.441 23.6766 492.472 23.6766H478.501C477.533 23.6766 476.91 24.3092 476.91 25.6647V35.9667C476.91 37.3222 477.463 37.9548 478.432 37.9548H492.403C493.441 37.9548 493.925 37.3222 493.925 35.9667ZM515.021 63.258L523.666 74.4637C524.081 75.0059 523.805 76 523.182 76H496.346C495.308 76 494.478 75.5482 493.717 74.5541L484.864 63.0773C484.103 62.0832 483.273 61.7218 482.236 61.7218H478.501C477.533 61.7218 476.979 62.3543 476.979 63.7099V74.0119C476.979 75.3674 476.495 76 475.458 76H448.829C447.86 76 447.238 75.3674 447.238 74.0119V1.98811C447.238 0.632578 447.791 0 448.76 0H522.076C523.044 0 523.666 0.632578 523.666 1.98811V59.7336C523.666 60.9988 523.113 61.7218 522.145 61.7218H515.505C514.882 61.7218 514.606 62.6254 515.021 63.258Z"/>
<path d="M638.13 54.3115V74.0119C638.13 75.3674 637.646 76 636.609 76H563.362C562.324 76 561.771 75.3674 561.771 74.0119V1.98811C561.771 0.632578 562.255 0 563.293 0H636.539C637.577 0 638.13 0.632578 638.13 1.98811V21.6885C638.13 23.044 637.646 23.6766 636.609 23.6766H593.034C592.135 23.6766 591.374 24.6706 591.374 25.8454V26.1165C591.374 27.3817 592.135 28.3757 593.034 28.3757H635.018C636.055 28.3757 636.609 29.0083 636.609 30.3639V45.6361C636.609 46.9917 636.124 47.6243 635.087 47.6243H593.034C592.135 47.6243 591.374 48.6183 591.374 49.8835V50.1546C591.374 51.3294 592.135 52.3234 593.034 52.3234H636.539C637.577 52.3234 638.13 52.956 638.13 54.3115Z"/>
<path d="M721.616 1.98811V21.6885C721.616 23.044 721.131 23.6766 720.094 23.6766H700.866C699.828 23.6766 699.344 24.3092 699.344 25.6647V74.0119C699.344 75.3674 698.86 76 697.823 76H671.194C670.225 76 669.672 75.3674 669.672 74.0119V25.6647C669.672 24.3092 669.188 23.6766 668.15 23.6766H646.778C645.741 23.6766 645.256 23.044 645.256 21.6885V1.98811C645.256 0.632578 645.741 0 646.778 0H720.094C721.131 0 721.616 0.632578 721.616 1.98811Z"/>
<path d="M775.498 50.3353V25.6647C775.498 24.3092 775.014 23.6766 773.907 23.6766H759.936C758.898 23.6766 758.414 24.3092 758.414 25.6647V50.3353C758.414 51.6005 758.898 52.3234 759.936 52.3234H773.907C775.014 52.3234 775.498 51.6005 775.498 50.3353ZM805.101 1.98811V74.0119C805.101 75.3674 804.617 76 803.579 76H730.263C729.226 76 728.742 75.3674 728.742 74.0119V1.98811C728.742 0.632578 729.226 0 730.263 0H803.579C804.617 0 805.101 0.632578 805.101 1.98811Z"/>
<path d="M883.328 36.4185C883.328 36.5089 882.844 32.8942 882.014 25.5743C881.875 24.3995 881.253 23.6766 880.215 23.6766H878.555C877.449 23.6766 876.895 24.3995 876.757 25.5743C875.858 32.8942 875.443 36.5089 875.443 36.4185C875.443 37.4126 875.858 38.0452 876.757 38.0452H882.014C882.913 38.0452 883.328 37.4126 883.328 36.4185ZM908.781 1.98811L917.634 74.283C917.773 75.4578 917.219 76 916.32 76H889.691C888.585 76 888.031 75.3674 887.893 74.0119L886.648 63.7099C886.51 62.3543 885.956 61.7218 884.919 61.7218H873.852C872.815 61.7218 872.261 62.3543 872.123 63.7099L870.878 74.0119C870.74 75.3674 870.117 76 869.08 76H842.451C841.482 76 840.998 75.4578 841.137 74.283L849.99 1.98811C850.128 0.722945 850.682 0 851.788 0H906.983C908.02 0 908.573 0.722945 908.781 1.98811Z"/>
<path d="M1000 54.3115V74.0119C1000 75.3674 999.516 76 998.478 76H926.753C925.716 76 925.162 75.3674 925.162 74.0119V1.98811C925.162 0.722945 925.647 0 926.684 0H953.313C954.281 0 954.835 0.722945 954.835 1.98811V50.3353C954.835 51.6005 955.319 52.3234 956.356 52.3234H998.409C999.447 52.3234 1000 52.956 1000 54.3115Z"/>
<path d="M833.698 56.1689V73.5197C833.698 74.6944 832.704 75.6885 831.528 75.6885H814.17C812.994 75.6885 812 74.6944 812 73.5197V56.1689C812 54.9941 812.994 54 814.17 54H831.528C832.704 54 833.698 54.9941 833.698 56.1689Z"/>
<path d="M552.698 56.1689V73.5197C552.698 74.6944 551.704 75.6885 550.528 75.6885H533.17C531.994 75.6885 531 74.6944 531 73.5197V56.1689C531 54.9941 531.994 54 533.17 54H550.528C551.704 54 552.698 54.9941 552.698 56.1689Z"/>
</svg>
