<svg width="412" height="144" viewBox="0 0 412 144" fill="none" xmlns="http://www.w3.org/2000/svg">
<path d="M94.918 0.723783L76.9067 43.427C76.7473 43.8291 76.3488 44.0703 75.8706 44.0703H44.8689C44.4704 44.0703 44.0719 44.3116 43.9125 44.7137L34.5881 66.9901C34.4287 67.3922 34.0302 67.6335 33.552 67.6335H0.717265C0.398481 67.6335 0.159392 67.3118 0.239089 66.9901L14.9032 32.0877C15.0626 31.6856 15.461 31.3639 15.9392 31.3639H46.941C47.4192 31.3639 47.8176 31.1227 47.977 30.7206L51.8024 21.7135C51.8821 21.3918 51.7227 20.9897 51.3243 20.9897H0.717265C0.318785 20.9897 0 20.668 0 20.2659V0.723783C0 0.321682 0.318785 0 0.717265 0H94.5195C94.8383 0 95.0774 0.402101 94.918 0.723783Z"/>
<path d="M180.194 28.7905V48.413C180.194 48.8151 179.875 49.0564 179.477 49.0564L137.955 44.6333C137.557 44.5529 137.238 44.8745 137.238 45.2766V66.9097C137.238 67.3118 136.919 67.6335 136.521 67.6335H103.606C103.208 67.6335 102.889 67.3118 102.889 66.9097V0.723783C102.889 0.321682 103.208 0 103.606 0H136.521C136.919 0 137.238 0.321682 137.238 0.723783V22.6785C137.238 23.1611 137.557 23.4827 137.955 23.4827L179.477 27.9863C179.875 27.9863 180.194 28.3884 180.194 28.7905Z"/>
<path d="M34.349 76.3665V121.563C34.349 121.965 34.0302 122.286 33.6317 122.286H0.717256C0.318776 122.286 0 121.965 0 121.563V76.3665C0 75.9644 0.318776 75.6427 0.717256 75.6427H33.6317C34.0302 75.6427 34.349 75.9644 34.349 76.3665ZM83.9996 76.3665L76.3488 142.552C76.3488 142.955 75.9503 143.276 75.5519 143.276H42.7171C42.3186 143.276 41.9998 142.955 42.0795 142.552L49.7303 76.3665C49.7303 75.9644 50.1288 75.6427 50.5273 75.6427H83.3621C83.7606 75.6427 83.9996 75.9644 83.9996 76.3665Z"/>
<path d="M180.194 122.93V142.552C180.194 142.955 179.875 143.276 179.477 143.276H96.5131C96.1147 143.276 95.7959 142.955 95.7959 142.552V122.93C95.7959 122.528 96.1147 122.206 96.5131 122.206H120.103C120.502 122.206 120.82 121.884 120.82 121.482V97.517C120.82 97.1149 120.502 96.7933 120.103 96.7933H96.5131C96.1147 96.7933 95.7959 96.3912 95.7959 95.9891V76.3665C95.7959 75.9644 96.1147 75.6427 96.5131 75.6427H179.477C179.875 75.6427 180.194 75.9644 180.194 76.3665V95.9891C180.194 96.3912 179.875 96.7933 179.477 96.7933H155.887C155.488 96.7933 155.169 97.1149 155.169 97.517V121.482C155.169 121.884 155.488 122.206 155.887 122.206H179.477C179.875 122.206 180.194 122.528 180.194 122.93Z"/>
<path d="M211.814 62.7802V82.4832C211.814 82.8853 211.495 83.207 211.096 83.207H191.651C191.252 83.207 190.933 82.8853 190.933 82.4832V62.7802C190.933 62.3781 191.252 62.0564 191.651 62.0564H211.096C211.495 62.0564 211.814 62.3781 211.814 62.7802Z"/>
<path d="M307.694 47.2871V66.9097C307.694 67.3118 307.375 67.6335 306.977 67.6335H224.013C223.615 67.6335 223.296 67.3118 223.296 66.9097V47.2871C223.296 46.885 223.615 46.5634 224.013 46.5634H247.603C248.002 46.5634 248.321 46.2417 248.321 45.8396V21.8743C248.321 21.4722 248.002 21.1505 247.603 21.1505H224.013C223.615 21.1505 223.296 20.7484 223.296 20.3463V0.723783C223.296 0.321682 223.615 0 224.013 0H306.977C307.375 0 307.694 0.321682 307.694 0.723783V20.3463C307.694 20.7484 307.375 21.1505 306.977 21.1505H283.387C282.988 21.1505 282.669 21.4722 282.669 21.8743V45.8396C282.669 46.2417 282.988 46.5634 283.387 46.5634H306.977C307.375 46.5634 307.694 46.885 307.694 47.2871Z"/>
<path d="M399.48 28.7905V48.413C399.48 48.8151 399.162 49.0564 398.763 49.0564L357.241 44.6333C356.843 44.5529 356.524 44.8745 356.524 45.2766V66.9097C356.524 67.3118 356.205 67.6335 355.807 67.6335H322.892C322.494 67.6335 322.175 67.3118 322.175 66.9097V0.723783C322.175 0.321682 322.494 0 322.892 0H355.807C356.205 0 356.524 0.321682 356.524 0.723783V22.6785C356.524 23.1611 356.843 23.4827 357.241 23.4827L398.763 27.9863C399.162 27.9863 399.48 28.3884 399.48 28.7905Z"/>
<path d="M317.497 77.0903L299.485 119.793C299.326 120.196 298.927 120.437 298.449 120.437H267.448C267.049 120.437 266.651 120.678 266.491 121.08L257.167 143.357C257.007 143.759 256.609 144 256.131 144H223.296C222.977 144 222.738 143.678 222.818 143.357L237.482 108.454C237.641 108.052 238.04 107.73 238.518 107.73H269.52C269.998 107.73 270.396 107.489 270.556 107.087L274.381 98.08C274.461 97.7583 274.301 97.3562 273.903 97.3562H223.296C222.897 97.3562 222.579 97.0345 222.579 96.6324V77.0903C222.579 76.6882 222.897 76.3665 223.296 76.3665H317.098C317.417 76.3665 317.656 76.7686 317.497 77.0903Z"/>
<path d="M356.691 77.0903L349.04 143.276C349.04 143.678 348.642 144 348.243 144H315.408C315.01 144 314.771 143.678 314.771 143.276L322.422 77.0903C322.422 76.6882 322.82 76.3665 323.219 76.3665H356.053C356.452 76.3665 356.771 76.6882 356.691 77.0903ZM412 123.654V143.276C412 143.678 411.681 144 411.283 144H358.125C357.727 144 357.408 143.678 357.488 143.276L365.059 77.0903C365.139 76.6882 365.457 76.3665 365.936 76.3665H398.77C399.089 76.3665 399.408 76.6882 399.408 77.0903L394.148 122.206C394.148 122.608 394.467 122.93 394.786 122.93H411.283C411.681 122.93 412 123.252 412 123.654Z"/>
</svg>
