<svg width="858" height="92" viewBox="0 0 858 92" fill="none" xmlns="http://www.w3.org/2000/svg">
<path d="M144.437 0.311593C143.825 0.44107 142.62 0.681528 141.749 0.829502C140.878 0.977476 139.469 1.23643 138.598 1.4029C136.725 1.75434 134.223 2.19826 132.944 2.42022C132.443 2.51271 131.312 2.71617 130.441 2.88264C128.198 3.30807 127.03 3.51153 125.343 3.80748C124.528 3.95545 123.156 4.19591 122.285 4.36238C121.413 4.52885 120.301 4.73232 119.782 4.8248C119.282 4.91728 118.151 5.12075 117.28 5.28722C114.629 5.76814 112.608 6.13807 111.459 6.32304C110.847 6.43402 110.291 6.545 110.217 6.60049C110.143 6.63748 110.328 7.58082 110.643 8.67212C110.94 9.76343 111.255 10.8917 111.348 11.2062C111.589 12.094 111.996 13.5553 113.109 17.4951C114.147 21.1759 114.592 22.7297 114.87 23.784C114.962 24.0799 115.5 26.0036 116.093 28.0382C116.668 30.0729 117.187 31.978 117.224 32.2925C117.298 32.7919 117.168 32.9584 116.13 33.7722C111.867 37.1941 107.9 42.2067 105.527 47.2009C104.6 49.143 103.543 52.195 103.191 53.9337C103.08 54.5441 102.895 55.3949 102.802 55.8204C102.58 56.8747 102.598 62.8121 102.839 64.7358C103.488 70.0074 104.971 74.2431 107.251 77.4615C108.437 79.1078 111.07 81.6788 112.831 82.8626C115.574 84.7493 119.115 86.3215 123.675 87.6903C126.53 88.5411 131.831 89.5214 136.744 90.0948C146.346 91.2046 163.845 91.2601 186.239 90.2613C188.537 90.1688 190.854 90.0393 191.392 89.9654L192.356 89.8544V73.2443C192.356 64.0884 192.3 56.6157 192.226 56.6157C192.133 56.6157 191.503 56.7082 190.78 56.8192C189.112 57.0596 186.758 57.3001 182.716 57.633C174.857 58.2989 170.241 58.5024 160.008 58.5949C150.962 58.6689 149.053 58.6504 146.791 58.3914C142.212 57.855 140.896 56.8377 142.268 54.877C144.363 51.862 153.075 48.1072 163.716 45.6286C164.439 45.4622 165.347 45.2402 165.755 45.1477C166.756 44.8888 169.685 44.2784 171.464 43.9454C174.968 43.2796 176.006 43.0761 176.97 42.9281C179.75 42.4657 181.549 42.1882 183.921 41.8368C185.349 41.6333 187.054 41.3744 187.722 41.2634C188.389 41.1709 189.501 41.0229 190.187 40.9675C191.003 40.875 191.503 40.7455 191.559 40.5975C191.651 40.3571 191.448 39.5247 189.779 33.3098C189.13 30.8867 188.203 27.3539 187.462 24.6163C187.314 24.0614 187.036 22.9701 186.832 22.2118C186.628 21.4534 186.183 19.8257 185.868 18.6049C185.553 17.3841 185.089 15.6824 184.848 14.813C184.626 13.9437 184.199 12.39 183.921 11.3357C183.643 10.2998 183.365 9.44899 183.328 9.44899C182.902 9.44899 171.798 11.8166 167.979 12.7229C164.309 13.5923 158.711 15.0165 156.486 15.6454C155.874 15.8119 155.133 16.0338 154.818 16.1078C154.521 16.2003 153.613 16.4408 152.834 16.6627C152.037 16.8847 151.277 17.0327 151.129 16.9772C150.981 16.9217 150.758 16.5148 150.647 16.0708C150.536 15.6269 150.369 14.9795 150.276 14.6281C150.165 14.2766 149.627 12.279 149.071 10.1889C147.977 6.10108 147.848 5.62016 147.421 4.08493C147.255 3.53003 146.958 2.45722 146.773 1.73584C146.235 -0.224813 146.402 -0.132329 144.437 0.311593Z"/>
<path d="M605.434 0.108139C605.397 0.163629 604.6 0.3301 603.691 0.496571C602.783 0.644545 601.634 0.848009 601.115 0.940493C600.614 1.03298 599.483 1.23644 598.612 1.40291C596.87 1.71736 594.367 2.17978 592.958 2.42023C592.458 2.51272 591.327 2.71618 590.456 2.88265C588.213 3.30808 587.045 3.51154 585.358 3.80749C584.542 3.95546 583.171 4.19592 582.299 4.36239C581.428 4.52886 580.316 4.73233 579.797 4.82481C579.296 4.91729 578.165 5.12076 577.294 5.28723C574.643 5.76814 572.623 6.13808 571.473 6.32305C570.862 6.43403 570.306 6.54501 570.231 6.6005C570.157 6.63749 570.287 7.41435 570.547 8.3022C571.603 12.0755 571.789 12.7229 571.918 13.2408C572.011 13.5368 572.549 15.4604 573.123 17.4951C573.716 19.5297 574.254 21.4349 574.328 21.7493C574.421 22.0453 575.088 24.4314 575.811 27.0209C576.553 29.6105 577.201 31.978 577.239 32.2925C577.313 32.7919 577.183 32.9399 576.2 33.7352C574.755 34.9005 572.252 37.3606 570.973 38.8588C566.524 44.1489 563.947 49.513 562.835 55.7834C562.594 57.1891 562.687 63.626 563.002 65.8641C563.614 70.3958 565.115 74.4281 567.303 77.4985C568.452 79.1078 571.103 81.6788 572.845 82.8626C575.218 84.4903 578.128 85.8591 581.65 87.0244C585.951 88.4486 589.955 89.2625 596.851 90.0948C605.99 91.2046 623.934 91.2601 646.253 90.2613C648.552 90.1688 650.869 90.0393 651.406 89.9653L652.37 89.8544V73.2443C652.37 64.0884 652.315 56.6157 652.241 56.6157C652.148 56.6157 651.518 56.7082 650.795 56.8192C649.126 57.0596 646.791 57.3001 642.731 57.633C634.89 58.2989 630.255 58.5024 620.023 58.5949C610.995 58.6689 609.067 58.6504 606.806 58.3914C601.578 57.781 600.503 56.4862 603.135 53.9707C607.213 50.0494 618.873 46.1466 635.409 43.2056C639.116 42.5582 640.469 42.3362 644.677 41.7258C645.808 41.5594 647.18 41.3559 647.736 41.2634C648.292 41.1709 649.367 41.0414 650.109 40.9675C650.999 40.8935 651.518 40.7455 651.573 40.5975C651.666 40.3571 651.462 39.5247 649.794 33.3098C649.145 30.8867 648.218 27.3539 647.477 24.6163C647.328 24.0614 647.05 22.9701 646.846 22.2118C646.642 21.4534 646.197 19.8257 645.882 18.6049C645.567 17.3841 645.104 15.6824 644.863 14.8131C644.64 13.9437 644.214 12.39 643.936 11.3357C643.658 10.2998 643.38 9.449 643.343 9.449C642.991 9.449 631.961 11.7796 628.921 12.501C626.307 13.1114 619.986 14.6651 619.467 14.8131C614.814 16.1818 611.403 17.0697 611.143 16.9772C610.995 16.9217 610.773 16.5148 610.661 16.0708C610.55 15.6269 610.383 14.9795 610.291 14.6281C610.179 14.2766 609.772 12.7229 609.364 11.2062C608.956 9.67096 608.492 7.96926 608.344 7.41435C608.011 6.21207 607.881 5.78664 607.139 2.97514C606.824 1.80984 606.49 0.663042 606.398 0.422584C606.231 0.0526489 605.675 -0.132319 605.434 0.108139Z"/>
<path d="M261.939 0.755518C258.454 1.38441 254.913 2.75317 252.114 4.54735C249.519 6.21206 246.609 8.8016 244.977 10.8917C244.569 11.4096 244.18 11.8351 244.106 11.8536C244.032 11.8536 243.939 9.63396 243.921 6.89644L243.865 1.95781H206.234V55.2285H244.236L244.273 53.2863C244.328 51.1037 244.792 45.4622 245.07 43.7605C246.201 36.6022 247.016 33.9017 248.759 31.5156C249.667 30.2578 250.65 29.7399 252.299 29.6474C253.616 29.5735 253.727 29.6105 254.45 30.1284C256.118 31.3491 256.545 33.4948 256.693 41.1709C256.804 47.1269 256.656 49.1245 256.007 51.0482C255.581 52.343 254.654 53.7117 253.745 54.4146C249.76 57.4851 243.605 58.2619 220.378 58.5764L211.517 58.6873L211.61 59.0943C211.666 59.2977 212.036 61.8133 212.444 64.6618C212.852 67.5103 213.223 70.1368 213.278 70.4883C213.334 70.8397 213.668 73.1703 214.02 75.6674C214.372 78.1644 214.706 80.495 214.761 80.8465C214.817 81.1979 215.151 83.5285 215.503 86.0255C215.855 88.5226 216.207 90.8902 216.281 91.2786L216.393 92L225.587 91.889C237.173 91.7225 246.238 91.2971 253.504 90.5387C268.501 89.0035 278.53 85.8221 284.684 80.68C287.669 78.1829 290.004 75.2419 291.543 71.968C292.785 69.36 292.896 69.064 294.009 65.4017C294.324 64.3659 295.102 60.2226 295.306 58.5579C295.732 55.0435 295.862 53.0088 295.973 47.6448C296.214 36.6207 295.38 27.3169 293.564 20.6395C291.469 12.9079 287.78 7.41435 282.552 4.17742C281.829 3.715 281.181 3.34506 281.144 3.34506C281.088 3.34506 280.439 3.06761 279.698 2.71617C277.862 1.86532 275.341 1.18094 272.45 0.755518C269.372 0.274603 264.516 0.274603 261.939 0.755518Z"/>
<path d="M20.3911 0.884995C20.3169 0.940485 20.2613 1.53238 20.2613 2.17977V3.34506H2.83621V27.9457L11.7897 27.9827L20.7247 28.0382V32.2185L19.3344 32.9769C9.80625 38.1375 4.3192 44.4633 1.64982 53.3973C0.500508 57.2631 0.0185373 61.0179 0 66.234C0 71.1172 0.333672 73.4663 1.48299 76.6847C2.6323 79.9216 4.11529 82.3077 6.26562 84.4718C9.65795 87.8567 13.6991 89.6879 19.7423 90.5573C23.3756 91.0937 32.4218 90.7607 36.9449 89.9284C40.2631 89.318 41.1714 89.1145 43.5627 88.4486C50.2362 86.599 56.8169 83.1031 61.0805 79.1818C61.8776 78.4419 62.6006 77.887 62.6933 77.924C63.1567 78.0905 61.3586 83.2141 59.6346 86.562C59.097 87.6163 58.6892 88.5411 58.7263 88.6151C58.7819 88.6891 59.6346 88.8186 60.6171 88.8741C61.6181 88.948 63.305 89.0775 64.3802 89.17C65.4553 89.2625 67.995 89.4844 70.0341 89.6324C72.0732 89.7804 74.205 89.9654 74.7611 90.0209C75.8548 90.1133 80.8413 90.5203 85.383 90.8532C86.9401 90.9827 88.2007 91.0012 88.2748 90.9087C88.6455 90.5018 89.7393 84.7308 90.3139 80.2916C91.352 72.3749 91.5374 60.0931 90.7032 54.9695L90.2954 52.5094L91.2037 51.5476C92.7979 49.9014 94.596 47.6633 94.596 47.3488C94.596 47.2379 88.6456 42.2252 86.6991 40.7085C86.384 40.4495 84.5117 38.9143 82.5468 37.2866C75.9475 31.8301 75.0391 31.1087 74.8352 31.0902C74.7055 31.0902 74.1308 31.6821 73.5562 32.385C72.9815 33.1063 72.4439 33.6797 72.3698 33.6797C72.3142 33.6797 71.6283 33.4578 70.8682 33.1988C66.5305 31.7376 61.4884 30.9607 54.9817 30.7757L50.8479 30.6648V28.1307H70.275C80.9525 28.1307 89.7949 28.0567 89.9246 27.9827C90.11 27.8533 90.1471 25.2637 90.11 15.6269L90.0544 3.43755L50.8665 3.34506L50.7552 0.848001L35.6288 0.792511C27.324 0.774014 20.4467 0.811008 20.3911 0.884995ZM54.2773 50.1788C56.7799 50.7153 56.854 50.7337 57.0023 50.9372C57.3175 51.4181 53.9066 55.3764 51.5338 57.2816C50.0508 58.4839 50.0323 58.4839 49.8098 58.0585C49.1239 56.6897 48.2898 50.1603 48.7717 49.6979C48.9756 49.476 52.4421 49.7719 54.2773 50.1788ZM27.083 56.3568C27.1757 57.7995 27.6948 62.2942 27.9543 64.0144C28.3621 66.6595 28.4177 66.493 27.1943 66.3635C25.8225 66.2155 24.1912 65.4017 23.6351 64.5878C22.6526 63.1081 22.6897 61.1289 23.7278 59.0573C24.2839 57.929 26.4899 55.4504 26.8235 55.5614C26.9348 55.5984 27.046 55.9498 27.083 56.3568Z"/>
<path d="M313.022 12.9079L313.077 25.0787H390.563V0.848003L312.985 0.755519L313.022 12.9079Z"/>
<path d="M468.875 0.977473C468.82 1.10695 468.801 6.58199 468.82 13.1483L468.875 25.0787L507.34 25.1342C528.491 25.1527 545.991 25.1342 546.232 25.0787L546.639 24.9863V13.0928C546.639 4.08493 546.584 1.14394 546.417 0.977473C546.083 0.644531 468.987 0.663028 468.875 0.977473Z"/>
<path d="M683.155 0.884983C683.081 0.940473 683.025 1.53237 683.025 2.17976V3.34505H665.6V27.9457L674.553 27.9827L683.488 28.0382L683.6 32.1445L681.227 33.4763C673.052 38.1004 667.806 43.9269 665.062 51.4366C662.708 57.8735 662.059 68.1392 663.598 74.2801C664.414 77.5725 665.563 80.1251 667.213 82.3262C670.716 86.9874 675.48 89.5584 682.487 90.5572C686.102 91.0751 695.575 90.7422 699.709 89.9283C700.172 89.8544 701.136 89.6694 701.84 89.5399C704.176 89.133 709.645 87.5608 711.48 86.7654C711.684 86.6729 712.277 86.414 712.777 86.192C717.097 84.3423 720.767 82.0117 724.178 78.9598C724.845 78.3679 725.438 77.887 725.513 77.887C726.032 77.887 724.289 82.8811 722.584 86.266C721.768 87.8752 721.471 88.6521 721.62 88.7076C721.749 88.7446 723.066 88.874 724.549 88.985C728.571 89.281 733.502 89.6694 742.066 90.3723C752.336 91.2231 751.15 91.2601 751.409 90.0578C752.577 84.6753 752.874 82.7146 753.504 76.7772C753.819 73.5957 753.893 71.7091 753.912 65.1242C753.93 57.2076 753.893 56.4862 753.17 53.0643C753.096 52.6389 753.263 52.3614 754.412 51.1222C755.784 49.6609 757.36 47.6448 757.36 47.3673C757.36 47.2009 756.729 46.6644 742.808 35.178L737.617 30.8867L736.969 31.6636C736.616 32.089 736.06 32.7364 735.764 33.0878L735.189 33.7167L733.817 33.2543C731.871 32.5884 729.313 31.9595 727.329 31.6266C724.196 31.1272 721.342 30.8682 717.69 30.7572L713.704 30.6278L713.593 28.1307H733.02C743.698 28.1307 752.559 28.0567 752.688 27.9827C752.874 27.8532 752.911 25.2637 752.874 15.6269L752.818 3.43753L713.63 3.34505L713.519 0.847989L698.392 0.792499C690.088 0.774002 683.21 0.810996 683.155 0.884983ZM717.134 50.1788C718.098 50.3823 719.08 50.6043 719.321 50.6412C719.543 50.6967 719.785 50.8077 719.84 50.9002C720.248 51.5476 713.89 58.2804 712.889 58.2804C712.611 58.2804 712.388 57.6515 712.036 56.0053C711.684 54.3036 711.294 50.2713 711.461 49.8644C711.554 49.5869 711.795 49.5684 713.482 49.6794C714.52 49.7349 716.17 49.9754 717.134 50.1788ZM689.884 55.9128C689.884 56.8747 690.292 60.9069 690.551 62.5347C690.699 63.4965 690.885 64.7728 690.94 65.3462L691.052 66.419H690.421C689.532 66.419 688.197 65.9751 687.344 65.4202C684.879 63.7924 685.287 59.8526 688.253 56.6897C689.42 55.4504 689.884 55.2284 689.884 55.9128Z"/>
<path d="M771.646 0.885003C771.572 0.940494 771.516 6.36004 771.516 12.9079V24.8013L784.177 24.8198C792.686 24.8198 796.634 24.8938 796.264 25.0233C795.745 25.1897 789.646 26.4845 787.829 26.8174C787.366 26.9099 785.289 27.3354 783.195 27.7608C781.1 28.1862 778.857 28.6486 778.19 28.7781C777.522 28.9076 775.279 29.3515 773.185 29.7954C771.09 30.2209 768.383 30.7758 767.16 31.0162C764.027 31.6451 764.231 31.5526 764.342 32.459C764.472 33.4208 764.917 36.0658 765.288 38.156C765.455 39.0438 765.658 40.3016 765.751 40.9305C766.27 44.2784 768.365 56.5047 768.458 56.5787C768.513 56.6527 769.496 56.2273 770.645 55.6539C778.857 51.5291 787.625 48.6436 796.264 47.2009C800.416 46.5165 801.936 46.4055 805.81 46.498C810.111 46.5905 811.631 46.7754 814.375 47.4598C820.492 48.9951 823.94 51.6216 825.237 55.7649C825.942 58.0585 825.441 61.8688 824.162 63.8849C823.532 64.9023 823.161 64.9393 823.087 63.9959C822.92 61.7948 821.567 58.6319 820.028 56.8562C815.969 52.121 809.258 49.9014 798.951 49.8829C795.114 49.8644 793.705 49.9939 789.961 50.6228C784.066 51.6401 778.783 54.0077 775.557 57.1336C771.998 60.5555 770.589 63.8849 770.589 68.8051C770.589 76.9067 775.205 83.288 783.621 86.7839C788.478 88.8186 793.372 89.8914 800.805 90.5573C803.549 90.8162 805.588 90.8532 811.093 90.7792C820.307 90.6497 823.439 90.3908 830.187 89.1515C833.153 88.5966 838.436 87.0429 840.382 86.1365C840.698 85.9886 841.421 85.6556 842.014 85.3782C843.664 84.6383 846.333 82.9736 847.816 81.7713C853.322 77.2766 856.325 71.6166 857.659 63.2745C858.104 60.3891 858.123 52.5094 857.659 50.2343C855.546 39.6357 848.984 32.4775 838.065 28.8706C837.194 28.5931 835.915 28.2232 835.192 28.0382C834.488 27.8718 833.598 27.6683 833.246 27.5758C832.893 27.4833 832.152 27.3539 831.614 27.2799C831.077 27.2059 830.613 27.0949 830.558 27.0209C830.521 26.9654 831.132 26.762 831.911 26.577C832.689 26.392 834.21 26.0591 835.285 25.8001C837.88 25.2082 841.847 24.2834 842.885 24.0429C843.348 23.932 844.053 23.7655 844.461 23.673C845.221 23.5065 847.779 22.9146 850.819 22.2118C852.061 21.9158 852.524 21.7308 852.524 21.5274C852.524 21.3609 851.931 18.8638 851.208 15.9414C850.504 13.0374 849.41 8.61665 848.798 6.13808C848.187 3.65952 847.594 1.43991 847.501 1.19945L847.334 0.755526H809.555C788.775 0.755526 771.702 0.811016 771.646 0.885003ZM797.561 64.2734C799.582 64.8098 801.046 66.0676 801.936 67.9912C802.64 69.5449 802.622 69.8594 801.88 70.0998C799.267 70.9137 795.633 70.8212 793.984 69.8964C792.575 69.1195 792.093 68.3981 792.093 67.0294C792.093 65.5127 792.779 64.7358 794.447 64.2734C795.615 63.9589 796.43 63.9589 797.561 64.2734Z"/>
<path d="M307.794 54.2111L321.289 54.2481L334.766 54.3036L333.005 54.729C331.281 55.136 330.224 55.3764 327.444 55.9683C326.684 56.1348 325.72 56.3383 325.312 56.4308C323.032 56.9302 321.753 57.2076 319.714 57.633C308.703 59.8896 307.535 60.1301 306.589 60.3521C306.089 60.463 305.551 60.574 305.403 60.6295C305.125 60.7035 305.106 60.3891 305.662 66.3265C305.811 67.9542 306.07 70.6917 306.219 72.4304C306.385 74.1506 306.589 76.4442 306.682 77.5171C307.275 83.8059 307.442 85.6371 307.627 87.9677C307.739 89.392 307.887 90.6127 307.961 90.6867C308.017 90.7607 309.24 90.4093 310.668 89.9099C312.095 89.429 315.395 88.3376 317.99 87.5053C320.585 86.6914 323.05 85.8961 323.458 85.7481C325.813 84.9527 332.986 82.8071 336.991 81.6973C338.325 81.3274 339.734 80.9204 340.142 80.791C341.161 80.4765 343.201 80.5135 343.868 80.8465C344.609 81.2164 345.647 82.0487 347.279 83.621C351.765 87.9307 356.121 89.8544 363.128 90.6497C365.464 90.9087 375.215 90.8162 379.348 90.4833C385.762 89.9654 393.085 88.8371 396.588 87.8197L397.422 87.5793L397.478 72.19C397.515 58.9833 397.478 56.8007 397.255 56.8007C397.107 56.8007 396.625 56.9487 396.18 57.1521C394.123 58.0215 388.524 59.7787 385.28 60.574C379.404 61.9798 375.845 62.3127 373.101 61.6838C371.878 61.4064 369.69 60.2966 368.819 59.5012L368.393 59.1313L371.229 58.3359C372.786 57.9105 374.492 57.4296 374.992 57.2816C377.068 56.6712 379.33 55.9868 380.646 55.5984C381.406 55.3764 382.796 54.951 383.705 54.6736C384.631 54.4146 386.003 53.9892 386.763 53.7487C387.523 53.5268 388.914 53.1013 389.822 52.8424C390.749 52.5649 392.287 52.1025 393.251 51.8066C394.215 51.5106 395.365 51.1777 395.81 51.0482C396.236 50.9187 396.588 50.7707 396.588 50.6968C396.588 50.5303 393.085 29.629 392.955 29.0001L392.844 28.5007H307.794V54.2111Z"/>
<path d="M463.685 28.7226C463.629 28.8521 463.611 34.6231 463.629 41.5409L463.685 54.1187L477.124 54.2111C484.521 54.2666 490.36 54.3591 490.101 54.4331C489.637 54.5626 488.525 54.8215 485.837 55.4134C485.077 55.5799 483.946 55.8389 483.334 55.9683C482.723 56.1163 481.184 56.4308 479.905 56.7082C478.626 56.9672 477.254 57.2631 476.846 57.3556C476.439 57.4481 475.641 57.6145 475.085 57.7255C474.529 57.8365 472.49 58.2619 470.544 58.6689C468.616 59.0758 465.984 59.6122 464.704 59.8896C463.425 60.1486 462.091 60.4076 461.738 60.4815C461.09 60.611 461.09 60.611 461.108 61.5174C461.127 62.3497 461.405 65.5127 461.924 70.9507C462.017 71.968 462.22 74.2061 462.387 75.9448C462.536 77.665 462.795 80.458 462.962 82.1412C463.11 83.8244 463.314 86.0995 463.407 87.2278C463.703 90.5018 463.778 90.8717 464.13 90.7422C464.834 90.4648 475.567 86.9319 477.866 86.2105C479.238 85.7851 481.37 85.1192 482.593 84.7308C483.816 84.3424 486.69 83.473 488.988 82.8071C491.287 82.1412 493.419 81.5124 493.715 81.4199C494.976 81.0129 497.516 80.4765 498.09 80.4765C499.499 80.495 501.167 81.5678 503.355 83.8059C506.951 87.5238 511.752 89.7064 518.092 90.5573C522.059 91.0752 533.404 90.8162 539.503 90.0763C546.028 89.2995 552.571 88.0417 553.276 87.4683C553.443 87.3203 553.498 84.0279 553.498 72.116C553.498 59.1683 553.461 56.9672 553.239 56.8747C553.09 56.8192 551.978 57.1336 550.773 57.596C545.583 59.5567 540.782 60.833 535.128 61.7763C533.459 62.0538 530.29 62.0168 529.01 61.7208C527.472 61.3509 524.395 59.6862 524.395 59.2238C524.395 59.1313 525.674 58.7243 527.231 58.2989C528.769 57.8735 530.308 57.4481 530.605 57.3556C532.57 56.7452 534.275 56.2458 535.239 55.9683C537.519 55.3025 540.077 54.5441 540.522 54.3961C540.782 54.3036 541.857 53.9707 542.932 53.6562C544.007 53.3233 545.379 52.9164 545.991 52.7314C546.602 52.5464 547.733 52.2135 548.493 51.9915C549.253 51.7696 550.087 51.5291 550.347 51.4366C550.606 51.3626 551.163 51.1962 551.607 51.0667C552.034 50.9372 552.386 50.7338 552.386 50.6228C552.368 50.2528 551.255 43.335 550.903 41.5409C550.81 41.023 550.31 38.0265 549.791 34.882C549.272 31.7191 548.808 29.0001 548.753 28.8151C548.66 28.5191 546.473 28.5007 506.21 28.5007C472.435 28.5007 463.741 28.5561 463.685 28.7226Z"/>
<path d="M443.065 44.9097C443.065 52.1156 437.226 57.9571 430.023 57.9571C422.82 57.9571 416.981 52.1156 416.981 44.9097C416.981 37.7038 422.82 31.8622 430.023 31.8622C437.226 31.8622 443.065 37.7038 443.065 44.9097Z"/>
</svg>
